# xmcd
#
# Track frame offsets: 
#        150
#        20120
#        38334
#        54174
#        73818
#        94076
#        115190
#        136402
#        155823
#        174176
#        198961
#        221889
#        240121
#
# Disc length: 3457 seconds
#
# Revision: 0
# Processed by: cddbd v1.5.2PL0 Copyright (c) Steve Scherf et al.
# Submitted via: ExactAudioCopy v1.3
#
DISCID=ab0d7f0d
DTITLE=Dave Steffen Band - Half A Million Miles
DYEAR=2000
DGENRE=Rockin' Blues
TTITLE0=Drive My Car
TTITLE1=Never Get The Blues
TTITLE2=Drive Me Crazy
TTITLE3=Cool Clear Water
TTITLE4=Redwood Run
TTITLE5=You're My Soul, Baby
TTITLE6=Wildcat
TTITLE7=Walk In The Rain
TTITLE8=The Storm Is Gone
TTITLE9=The Good Life
TTITLE10=Fade Away
TTITLE11=No Mercy
TTITLE12=So Long Sweet Angel
EXTD=
EXTT0=
EXTT1=
EXTT2=
EXTT3=
EXTT4=
EXTT5=
EXTT6=
EXTT7=
EXTT8=
EXTT9=
EXTT10=
EXTT11=
EXTT12=
PLAYORDER=
